<?xml version="1.0" encoding="UTF-8"?>
<svg version="1.1" xmlns="http://www.w3.org/2000/svg" width="1080" height="1080">
<path d="M0 0 C356.4 0 712.8 0 1080 0 C1080 356.4 1080 712.8 1080 1080 C723.6 1080 367.2 1080 0 1080 C0 723.6 0 367.2 0 0 Z " fill="#5CE0E5" transform="translate(0,0)"/>
<path d="M0 0 C0.33 0 0.66 0 1 0 C1 171.93 1 343.86 1 521 C-170.6 521 -342.2 521 -519 521 C-519 520.67 -519 520.34 -519 520 C-517.71996094 519.98582031 -516.43992187 519.97164062 -515.12109375 519.95703125 C-471.66518421 519.01596303 -426.28369419 511.41817154 -385 498 C-383.69121039 497.58016199 -382.38228112 497.16075919 -381.07324219 496.74169922 C-343.19301163 484.58896134 -306.59656114 469.81018983 -272 450 C-270.62787354 449.21906982 -270.62787354 449.21906982 -269.22802734 448.42236328 C-256.04206842 440.88654766 -243.39868507 432.76547555 -231 424 C-229.72143434 423.10405225 -228.44279278 422.20821279 -227.1640625 421.3125 C-215.39729451 413.0273927 -204.04001705 404.23264727 -193 395 C-192.20988525 394.33943604 -192.20988525 394.33943604 -191.40380859 393.66552734 C-178.00543432 382.42528047 -165.387086 370.4668344 -153 358.125 C-152.11562256 357.24529541 -151.23124512 356.36559082 -150.32006836 355.45922852 C-145.33894658 350.46580417 -140.58054593 345.3612571 -136 340 C-134.95477005 338.80845078 -133.90791888 337.61832156 -132.859375 336.4296875 C-126.1157347 328.73720406 -119.59720526 320.91997935 -113.37695312 312.79785156 C-112.44913877 311.5864287 -111.51807627 310.37748749 -110.58398438 309.17089844 C-101.80995543 297.82639958 -93.79748032 286.03253353 -86 274 C-85.0728418 272.5759082 -85.0728418 272.5759082 -84.12695312 271.12304688 C-75.01287089 257.06158873 -66.87560066 242.69227008 -59.36474609 227.71484375 C-58.19312224 225.38417162 -57.00375383 223.06458016 -55.80078125 220.75 C-45.26826252 200.35925282 -36.91601668 179.11343925 -29.25292969 157.51367188 C-28.41227883 155.15618024 -27.55857471 152.8033056 -26.69238281 150.45507812 C-23.84236628 142.6815236 -21.50169108 134.90662271 -19.5 126.875 C-19.20303223 125.70050293 -18.90606445 124.52600586 -18.60009766 123.31591797 C-18.00475004 120.95926672 -17.41174882 118.60202127 -16.82128906 116.24414062 C-16.10935131 113.43194419 -15.3724446 110.62891641 -14.6171875 107.828125 C-11.06169024 94.48028132 -8.75883175 80.95190109 -6.54711914 67.32397461 C-6.20095257 65.22086982 -5.84233467 63.11974401 -5.46655273 61.02172852 C-3.98922966 52.69799997 -3.17141945 44.35128927 -2.4375 35.9375 C-2.37307709 35.216763 -2.30865417 34.496026 -2.24227905 33.75344849 C-1.23795766 22.51387163 -0.4263995 11.27753168 0 0 Z " fill="#FEF3BD" transform="translate(1079,559)"/>
<path d="M0 0 C171.6 0 343.2 0 520 0 C520 171.93 520 343.86 520 521 C519.67 521 519.34 521 519 521 C518.95512451 520.03513672 518.91024902 519.07027344 518.86401367 518.07617188 C517.95852488 498.94003588 516.84259073 479.96551757 514 461 C513.78102051 459.47656982 513.78102051 459.47656982 513.55761719 457.92236328 C512.40925843 450.12825826 510.92861545 442.44616923 509.25 434.75 C508.85421753 432.93036743 508.85421753 432.93036743 508.45043945 431.07397461 C507.6413242 427.38089847 506.82242406 423.69013305 506 420 C505.76265137 418.92572754 505.52530273 417.85145508 505.28076172 416.74462891 C490.46903391 350.28550534 461.55886283 287.94056965 423 232 C422.30632324 230.99356445 422.30632324 230.99356445 421.59863281 229.96679688 C415.85997846 221.69046762 409.77888281 213.70696659 403.48144531 205.84912109 C402.46520687 204.58066526 401.45167174 203.3100403 400.44042969 202.03759766 C393.86084056 193.76205235 387.11445382 185.74751693 379.8515625 178.0625 C377.78848175 175.87664674 375.81751228 173.63115021 373.86328125 171.34765625 C369.49518454 166.32947415 364.79623963 161.64612645 360.0847168 156.9543457 C358.56508332 155.4400742 357.05087483 153.9205257 355.53710938 152.40039062 C350.19605085 147.05573271 344.74468632 141.91207413 339 137 C337.4551874 135.5867645 335.91304675 134.17059591 334.375 132.75 C328.78191211 127.71026175 322.90456032 123.0889188 316.94335938 118.49755859 C314.93206817 116.94765153 312.92698316 115.38992631 310.921875 113.83203125 C295.17859336 101.64539569 278.97918183 90.39906496 262 80 C261.32598145 79.58572754 260.65196289 79.17145508 259.95751953 78.74462891 C226.06797065 58.0348196 190.36644548 42.24428162 153 29 C151.93185059 28.62085449 150.86370117 28.24170898 149.76318359 27.85107422 C120.81179789 17.67312144 91.09138246 11.41952842 60.8125 6.75 C60.00595978 6.62512207 59.19941956 6.50024414 58.36843872 6.37158203 C42.59399379 3.94650946 26.84204826 1.87202874 10.875 1.375 C9.81152344 1.33632813 8.74804688 1.29765625 7.65234375 1.2578125 C5.10170588 1.16589762 2.55103719 1.07990262 0 1 C0 0.67 0 0.34 0 0 Z " fill="#FEF3BD" transform="translate(560,0)"/>
<path d="M0 0 C170.61 0 341.22 0 517 0 C517 0.33 517 0.66 517 1 C515.46351807 1.10489746 515.46351807 1.10489746 513.89599609 1.21191406 C421.55299456 7.5916996 333.92897537 31.84160249 194 126.4375 C191.08234554 128.92966319 188.11478948 131.34516933 185.125 133.75 C181.45359311 136.73600676 178.0479483 139.81805486 174.77172852 143.22924805 C173.05288195 144.94714719 171.27359178 146.51714945 169.421875 148.08984375 C164.36911136 152.48224046 159.65910467 157.19454671 154.9375 161.9375 C154.07833984 162.79279297 153.21917969 163.64808594 152.33398438 164.52929688 C147.8833968 168.98668443 143.5768452 173.50753192 139.47290039 178.28637695 C137.615939 180.44682979 135.68280407 182.53239717 133.75 184.625 C129.20516719 189.66199745 125.03898809 194.94162394 120.88671875 200.30078125 C118.96149488 202.78263309 117.00664119 205.23539396 115.01953125 207.66796875 C108.33354949 215.86162694 102.16777002 224.27720107 96.29394531 233.07080078 C95.08160187 234.87833623 93.85274651 236.67312913 92.6171875 238.46484375 C64.38005609 279.68227723 42.9472835 324.82234042 27.125 372.125 C26.90175049 372.78998505 26.67850098 373.45497009 26.44848633 374.1401062 C20.97892448 390.50436299 16.52411124 407.0482843 13 423.9375 C12.8301358 424.74881378 12.66027161 425.56012756 12.48526001 426.39602661 C6.17623374 456.74494215 3.00339483 487.09083622 1 518 C0.67 518 0.34 518 0 518 C0 347.06 0 176.12 0 0 Z " fill="#FEF3BD" transform="translate(0,0)"/>
<path d="M0 0 C0.33 0 0.66 0 1 0 C1.0501123 0.83958252 1.10022461 1.67916504 1.15185547 2.54418945 C2.63755764 27.16945028 4.90347821 51.13157842 9.34863281 75.43408203 C9.75816333 77.67606209 10.16200166 79.91909696 10.55761719 82.16357422 C25.95320955 169.25823302 66.6573039 253.32140164 126 325 C126.49177734 325.59087402 126.98355469 326.18174805 127.49023438 326.79052734 C138.62311213 340.12694198 150.58534087 352.66265387 162.815979 364.99121094 C164.20408826 366.39119549 165.58819862 367.79514151 166.97216797 369.19921875 C172.23001252 374.46379796 177.64972595 379.32927185 183.47729492 383.95703125 C186.09159532 386.07417687 188.58108869 388.29175523 191.0625 390.5625 C195.88418465 394.93426073 200.84578242 399.02628532 206 403 C206.67788574 403.52335937 207.35577148 404.04671875 208.05419922 404.5859375 C219.88020123 413.68091875 231.97477806 422.24782602 244.48876953 430.36962891 C246.09713725 431.41383264 247.70257271 432.46257542 249.30419922 433.51708984 C291.21562641 461.10517403 337.20955553 481.10895454 385 496 C386.09828125 496.34256836 387.1965625 496.68513672 388.328125 497.03808594 C428.3722914 509.3255076 471.19588018 516.12227358 513 518 C513 518.33 513 518.66 513 519 C343.71 519 174.42 519 0 519 C0 347.73 0 176.46 0 0 Z " fill="#FEF3BD" transform="translate(0,561)"/>
<path d="M0 0 C1.19238281 0.42410156 2.38476562 0.84820312 3.61328125 1.28515625 C24.5608832 9.50394215 39.81991411 24.49353451 49.3125 44.6875 C58.09918078 65.95437783 56.99183486 89.23750625 48.6484375 110.43359375 C45.12470665 118.00272509 40.28571929 124.56888506 35 131 C34.47019531 131.64582031 33.94039062 132.29164063 33.39453125 132.95703125 C19.18161599 148.55835468 -3.55914997 156.77299526 -24.13916016 158.14233398 C-48.37352821 159.1592149 -72.09752905 153.2789913 -90.375 136.5 C-92.28025183 134.69363982 -94.14159994 132.85562632 -96 131 C-96.59554688 130.41605469 -97.19109375 129.83210937 -97.8046875 129.23046875 C-113.31542965 112.67170349 -116.82782225 90.9885278 -116.34375 69.23828125 C-115.50801389 49.29105105 -105.63649828 30.89035898 -91.25 17.25 C-66.72064065 -3.68323413 -30.61952235 -11.10606404 0 0 Z " fill="#8A62C2" transform="translate(581,421)"/>
<path d="M0 0 C102.01167012 0 102.01167012 0 122.25 18.6875 C132.01584439 29.05493645 136.60162482 41.36243694 136.3125 55.4375 C136.29904541 56.35982422 136.28559082 57.28214844 136.27172852 58.23242188 C135.96330854 72.25376384 132.80637871 84.68570278 122.91796875 95.31640625 C103.77477319 112.12031111 82.4734677 114.66991493 57.875 114.25 C50.98625 114.1675 44.0975 114.085 37 114 C37 128.19 37 142.38 37 157 C24.79 157 12.58 157 0 157 C0 105.19 0 53.38 0 0 Z " fill="#8A62C2" transform="translate(316,419)"/>
<path d="M0 0 C1.69962891 0.43505859 1.69962891 0.43505859 3.43359375 0.87890625 C11.10114542 3.03738075 18.00336586 6.2180356 25 10 C22.98234121 16.38925283 20.61728541 22.57723555 18.06982422 28.76977539 C16.82734581 31.814125 15.66637595 34.7737652 15 38 C11.4472576 37.30123787 8.58920114 35.82782229 5.375 34.1875 C-10.03562198 27.05772506 -29.20423957 23.8320761 -45.875 28.1875 C-51.22465037 30.18180429 -54.82062473 33.2309371 -58 38 C-58.3168217 40.37755949 -58.3168217 40.37755949 -58.25 42.9375 C-58.25515625 43.79214844 -58.2603125 44.64679688 -58.265625 45.52734375 C-57.97171047 48.26334227 -57.58081767 49.74639386 -56 52 C-46.49209406 58.38114493 -35.12661981 60.73792136 -24.18164062 63.44433594 C16.0206258 73.38662024 16.0206258 73.38662024 26.66015625 88.33203125 C32.37263439 98.10819646 33.50307261 108.3906949 31.3125 119.48046875 C29.33247565 126.51780531 26.61115109 132.32806767 22 138 C21.20722656 139.01320313 21.20722656 139.01320313 20.3984375 140.046875 C9.61312599 152.30507046 -9.25592643 157.86930484 -25 159 C-50.05582197 160.24833277 -74.4411011 156.57930645 -96 143 C-96.66 142.34 -97.32 141.68 -98 141 C-97.61932057 137.23923944 -96.28973543 134.10816149 -94.71484375 130.69921875 C-94.04291992 129.23452148 -94.04291992 129.23452148 -93.35742188 127.74023438 C-92.88884766 126.73283203 -92.42027344 125.72542969 -91.9375 124.6875 C-91.46505859 123.66076172 -90.99261719 122.63402344 -90.50585938 121.57617188 C-89.34197675 119.048548 -88.17322145 116.52329928 -87 114 C-82.75027696 114.9355581 -79.14724399 116.88018541 -75.3125 118.875 C-69.66322016 121.75430217 -64.16019472 124.39394923 -58 126 C-56.89398437 126.34546875 -55.78796875 126.6909375 -54.6484375 127.046875 C-48.4049383 128.58824789 -42.01756165 128.36851667 -35.625 128.375 C-34.36171875 128.39949219 -33.0984375 128.42398438 -31.796875 128.44921875 C-23.92702788 128.47376089 -18.05870053 127.44433736 -11 124 C-10.01 123.67 -9.02 123.34 -8 123 C-6.83046584 120.57616923 -6.83046584 120.57616923 -6 118 C-5.67 117.34 -5.34 116.68 -5 116 C-4.75028932 112.09827057 -4.95583618 108.45927481 -7.27734375 105.21484375 C-15.69731247 97.46847253 -27.90902149 95.60789178 -38.6875 93.0625 C-80.10908965 83.2610445 -80.10908965 83.2610445 -91.41015625 65.82421875 C-96.64754506 55.85628521 -96.69470508 42.12840076 -94.12890625 31.3359375 C-88.6148993 17.34301495 -78.37446378 8.63379786 -65.05078125 2.28515625 C-45.48574204 -5.95671046 -20.24602283 -5.3182901 0 0 Z " fill="#8A62C2" transform="translate(744,420)"/>
<path d="M0 0 C10.36377815 7.46462976 18.26240065 18.38117591 21 31 C22.30544367 48.01032662 20.52501258 64.20908259 9.3125 77.75 C0.5767516 87.04300064 -11.78829262 92.35634118 -24.41015625 93.23828125 C-39.08937943 93.53657562 -51.11470876 89.86669524 -62.21484375 80.0390625 C-74.48021249 67.37348019 -76.58076604 52.91842976 -76.3359375 35.98828125 C-76.06528691 28.78248878 -74.6570551 23.30124936 -71 17 C-70.4534375 16.04222656 -69.906875 15.08445312 -69.34375 14.09765625 C-64.33603212 6.36327842 -57.83545043 1.53383807 -50 -3 C-48.77603516 -3.71542969 -48.77603516 -3.71542969 -47.52734375 -4.4453125 C-32.9724522 -11.21392873 -13.16685205 -8.58402243 0 0 Z " fill="#5BDEE3" transform="translate(578,455)"/>
<path d="M0 0 C5.94 -0.04125 11.88 -0.0825 18 -0.125 C19.85882813 -0.14320801 21.71765625 -0.16141602 23.6328125 -0.18017578 C25.13020541 -0.18602497 26.62760154 -0.19111952 28.125 -0.1953125 C28.88296875 -0.20554443 29.6409375 -0.21577637 30.421875 -0.22631836 C39.4480442 -0.22922627 47.29702225 2.26602078 55 7 C59.91826523 11.91826523 62.37284219 17.31919521 62.41015625 24.22851562 C62.39855469 24.95748047 62.38695312 25.68644531 62.375 26.4375 C62.38660156 27.16259766 62.39820313 27.88769531 62.41015625 28.63476562 C62.36732661 36.57966372 59.61640397 42.25595049 54 48 C46.7098697 53.43640524 38.50489525 54.30792404 29.6875 54.1953125 C28.54958008 54.19229126 28.54958008 54.19229126 27.38867188 54.18920898 C24.59238518 54.17885444 21.79618561 54.15093311 19 54.125 C9.595 54.063125 9.595 54.063125 0 54 C0 36.18 0 18.36 0 0 Z " fill="#5ADCE2" transform="translate(353,449)"/>
<path d="M0 0 C1.98 0 3.96 0 6 0 C6 1.98 6 3.96 6 6 C6.70125 5.38125 7.4025 4.7625 8.125 4.125 C14.29785256 -0.4375432 20.55881618 -0.64567882 28 0 C34.22978121 1.07925884 37.27295246 3.8764641 40.87109375 8.96484375 C43.9218527 14.46465486 43.803241 20.84815216 42.28125 26.8203125 C39.47584894 35.12339466 35.83595047 40.93666465 27.8671875 45.08203125 C24.18417473 46.26119746 20.64799947 46.51076964 16.8125 46.5625 C16.13533936 46.57716309 15.45817871 46.59182617 14.76049805 46.60693359 C9.73858609 46.50470951 6.84596863 45.15580928 3 42 C1.125 39.75 1.125 39.75 0 38 C-0.64974205 40.68660783 -1.29488418 43.37418674 -1.9375 46.0625 C-2.11990234 46.81466797 -2.30230469 47.56683594 -2.49023438 48.34179688 C-3.33404905 51.88581852 -4.09442399 55.38187341 -4.56640625 58.99609375 C-5 62 -5 62 -6 63 C-7.99958364 63.04080783 -10.00045254 63.04254356 -12 63 C-11.31867644 55.64780697 -9.99545037 48.53461472 -8.49609375 41.30859375 C-8.2533522 40.12274185 -8.01061066 38.93688995 -7.76051331 37.71510315 C-6.98995266 33.95511505 -6.21381398 30.19630398 -5.4375 26.4375 C-4.9117396 23.87702903 -4.38634511 21.31648289 -3.86132812 18.75585938 C-2.57845201 12.50303018 -1.29100325 6.25115597 0 0 Z " fill="#5DDCE1" transform="translate(463,650)"/>
<path d="M0 0 C2.34261505 1.70325505 4.36241697 3.60783087 6.375 5.6875 C6.705 3.0475 7.035 0.4075 7.375 -2.3125 C9.355 -2.3125 11.335 -2.3125 13.375 -2.3125 C12.67377559 7.38612495 10.71018837 16.79325458 8.8125 26.3125 C8.47939231 28.00121823 8.14670649 29.69001973 7.81445312 31.37890625 C7.0061644 35.48274742 6.1921693 39.58541834 5.375 43.6875 C3.065 43.6875 0.755 43.6875 -1.625 43.6875 C-1.625 42.0375 -1.625 40.3875 -1.625 38.6875 C-2.24761719 39.22890625 -2.24761719 39.22890625 -2.8828125 39.78125 C-9.37144453 44.66808584 -15.75298623 44.53093005 -23.625 43.6875 C-29.3579794 42.48985704 -32.33057509 39.29969487 -35.625 34.6875 C-38.65275291 29.68373993 -38.19003966 24.35184818 -37.625 18.6875 C-35.62059424 10.92990799 -32.04880781 4.56977029 -25.0625 0.375 C-17.52175487 -3.32682034 -7.4055759 -4.58374865 0 0 Z " fill="#5EDCE1" transform="translate(557.625,652.3125)"/>
<path d="M0 0 C1.98 0 3.96 0 6 0 C6 1.98 6 3.96 6 6 C6.70125 5.38125 7.4025 4.7625 8.125 4.125 C14.29785256 -0.4375432 20.55881618 -0.64567882 28 0 C34.22978121 1.07925884 37.27295246 3.8764641 40.87109375 8.96484375 C43.9218527 14.46465486 43.803241 20.84815216 42.28125 26.8203125 C39.47584894 35.12339466 35.83595047 40.93666465 27.8671875 45.08203125 C24.18417473 46.26119746 20.64799947 46.51076964 16.8125 46.5625 C16.13533936 46.57716309 15.45817871 46.59182617 14.76049805 46.60693359 C9.73858609 46.50470951 6.84596863 45.15580928 3 42 C1.125 39.75 1.125 39.75 0 38 C-0.64974205 40.68660783 -1.29488418 43.37418674 -1.9375 46.0625 C-2.11990234 46.81466797 -2.30230469 47.56683594 -2.49023438 48.34179688 C-3.33404905 51.88581852 -4.09442399 55.38187341 -4.56640625 58.99609375 C-5 62 -5 62 -6 63 C-7.99958364 63.04080783 -10.00045254 63.04254356 -12 63 C-11.31867644 55.64780697 -9.99545037 48.53461472 -8.49609375 41.30859375 C-8.2533522 40.12274185 -8.01061066 38.93688995 -7.76051331 37.71510315 C-6.98995266 33.95511505 -6.21381398 30.19630398 -5.4375 26.4375 C-4.9117396 23.87702903 -4.38634511 21.31648289 -3.86132812 18.75585938 C-2.57845201 12.50303018 -1.29100325 6.25115597 0 0 Z M5.625 12.5 C1.40783019 18.98795355 1.07648108 25.42143234 2 33 C3.62877262 36.77483783 6.07922061 38.5396103 9.75 40.375 C15.87495897 41.55287673 20.77252979 42.09315275 26.3125 38.8125 C31.1697211 35.38444137 34.09838213 31.64066397 36 26 C37.0838056 17.19130173 37.0838056 17.19130173 33.8125 9.3125 C28.88372815 5.25995425 24.86459599 4.48577967 18.56640625 4.6171875 C13.07706871 5.4359928 9.35432291 8.57439694 5.625 12.5 Z " fill="#F85C5C" transform="translate(463,650)"/>
<path d="M0 0 C2.34261505 1.70325505 4.36241697 3.60783087 6.375 5.6875 C6.705 3.0475 7.035 0.4075 7.375 -2.3125 C9.355 -2.3125 11.335 -2.3125 13.375 -2.3125 C12.67377559 7.38612495 10.71018837 16.79325458 8.8125 26.3125 C8.47939231 28.00121823 8.14670649 29.69001973 7.81445312 31.37890625 C7.0061644 35.48274742 6.1921693 39.58541834 5.375 43.6875 C3.065 43.6875 0.755 43.6875 -1.625 43.6875 C-1.625 42.0375 -1.625 40.3875 -1.625 38.6875 C-2.24761719 39.22890625 -2.24761719 39.22890625 -2.8828125 39.78125 C-9.37144453 44.66808584 -15.75298623 44.53093005 -23.625 43.6875 C-29.3579794 42.48985704 -32.33057509 39.29969487 -35.625 34.6875 C-38.65275291 29.68373993 -38.19003966 24.35184818 -37.625 18.6875 C-35.62059424 10.92990799 -32.04880781 4.56977029 -25.0625 0.375 C-17.52175487 -3.32682034 -7.4055759 -4.58374865 0 0 Z M-28.40234375 11.9765625 C-32.08922349 17.13583831 -32.41978544 22.49810841 -31.625 28.6875 C-29.29531069 33.52608548 -26.46358548 36.35781069 -21.625 38.6875 C-15.67795866 39.66536921 -10.61481635 38.95049097 -5.37890625 35.95703125 C-0.98798494 32.77874745 1.6670927 28.82620354 3.375 23.6875 C4.01563655 18.1526982 4.06609545 13.26319763 1.8125 8.125 C-2.27016616 4.04233384 -6.43623755 2.55042868 -12.125 2.25 C-19.47800342 2.54961304 -23.96768572 6.37115475 -28.40234375 11.9765625 Z " fill="#F85C5C" transform="translate(557.625,652.3125)"/>
<path d="M0 0 C2.31 0 4.62 0 7 0 C8.46484375 5.859375 9.9296875 11.71875 11.39453125 17.578125 C11.65830566 18.62935547 11.92208008 19.68058594 12.19384766 20.76367188 C12.74769848 22.98712629 13.29383292 25.21251264 13.83349609 27.43945312 C14.23109131 29.07043945 14.23109131 29.07043945 14.63671875 30.734375 C14.87479248 31.72147461 15.11286621 32.70857422 15.3581543 33.72558594 C15.78550453 35.94833154 15.78550453 35.94833154 17 37 C17.59425781 36.04222656 18.18851563 35.08445312 18.80078125 34.09765625 C23.45628581 26.61162771 28.15507249 19.15569999 32.9375 11.75 C33.39745361 11.03593994 33.85740723 10.32187988 34.33129883 9.58618164 C35.54266406 7.71618833 36.76781202 5.85631147 38 4 C38.53367187 3.1853125 39.06734375 2.370625 39.6171875 1.53125 C41 0 41 0 44.1875 -0.25 C45.115625 -0.1675 46.04375 -0.085 47 0 C44.52392713 5.14261289 41.87297831 9.92578303 38.625 14.625 C34.27752625 21.01946453 30.12147478 27.52046769 26 34.0625 C9.20149321 60.59950226 9.20149321 60.59950226 2 63 C0.19127624 63.14359334 -1.62332577 63.22046121 -3.4375 63.25 C-4.38496094 63.27578125 -5.33242188 63.3015625 -6.30859375 63.328125 C-9.3902834 62.95241828 -10.71972555 62.0484735 -13 60 C-12.34 58.35 -11.68 56.7 -11 55 C-10.319375 55.33 -9.63875 55.66 -8.9375 56 C-5.30782774 57.23563311 -2.81688628 57.46874042 1 57 C5.01128406 54.30009727 8.27461236 51.56720258 10 47 C10.23434161 37.55956099 6.84959543 28.02631983 4.4375 19 C3.79998308 16.59181652 3.16462301 14.18309061 2.53175354 11.77368164 C2.13978693 10.28376659 1.74482442 8.79463574 1.34654236 7.30639648 C0 2.22108499 0 2.22108499 0 0 Z " fill="#F75D5D" transform="translate(587,650)"/>
</svg>
